{
  "title": "The Tragically Hip A National Celebration (2016) 720p 5.1",
  "uid": 15613893,
  "size": 3605000364,
  "categoryP": "video",
  "categoryS": "hd___tv_shows",
  "magnet": "?xt=urn:btih:48d6e8cdfa669c243517f8c8fb08458e9c0c2df4&amp;dn=The+Tragically+Hip+A+National+Celebration+%282016%29+720p+5.1&amp;tr=udp%3A%2F%2Ftracker.leechers-paradise.org%3A6969&amp;tr=udp%3A%2F%2Fzer0day.ch%3A1337&amp;tr=udp%3A%2F%2Fopen.demonii.com%3A1337&amp;tr=udp%3A%2F%2Ftracker.coppersurfer.tk%3A6969&amp;tr=udp%3A%2F%2Fexodus.desync.com%3A6969",
  "seeders": 66,
  "leechers": 1,
  "uploader": "jpbazinet",
  "files": 1,
  "time": 1471812733,
  "description": "A proper encode for this momentous occasion.\r\n\r\nContainer: MKV\r\nVideo: H264, 1280x720, 60fps\r\nAudio: AC3, 48000Hz, 5.1\r\n\r\nSetlist:\r\n01 - 50 Mission Cap\r\n02 - Courage\r\n03 - Wheat Kings\r\n04 - At The Hundredth Meridian\r\n05 - In A World Possessed By The Human Mind\r\n06 - What Blue\r\n07 - Tired As Fuck\r\n08 - Machine\r\n09 - My Music At Work\r\n10 - Lake Fever\r\n11 - Toronto #4\r\n12 - Putting Down\r\n13 - Twist My Arm\r\n14 - Three Pistols\r\n15 - Fiddler's Green\r\n16 - Little Bones\r\n17 - The Last Of The Unplucked Gems\r\n18 - Something On\r\n19 - Poets\r\n20 - Bobcaygeon\r\n21 - Fireworks\r\n22 - New Orleans Is Sinking\r\n23 - Boots And Hearts\r\n24 - Blow At High Dough\r\n25 - Nautical Disaster\r\n26 - Scared\r\n27 - Grace, Too\r\n28 - Locked In The Trunk Of A Car\r\n29 - Gift Shop\r\n30 - Ahead By A Century\r\n\r\nVideo\r\nID                                       : 1\r\nFormat                                   : AVC\r\nFormat/Info                              : Advanced Video Codec\r\nFormat profile                           :   \r\nFormat settings, CABAC                   : Yes\r\nFormat settings, ReFrames                : 5 frames\r\nCodec ID                                 : V_MPEG4/ISO/AVC\r\nDuration                                 : 2h 42mn\r\nBit rate                                 : 2 516 Kbps\r\nWidth                                    : 1 280 pixels\r\nHeight                                   : 720 pixels\r\nDisplay aspect ratio                     : 16:9\r\nFrame rate mode                          : Constant\r\nFrame rate                               : 59.940 (60000/1001) fps\r\nColor space                              : YUV\r\nChroma subsampling                       : 4:2:0\r\nBit depth                                : 8 bits\r\nScan type                                : Progressive\r\nBits/(Pixel*Frame)                       : 0.046\r\nStream size                              : 2.85 GiB (85%)\r\nWriting library                          : x264 core 148 r2705 3f5ed56\r\nEncoding settings                        : cabac=1 / ref=5 / deblock=1:0:0 / analyse=0x3:0x113 / me=umh / subme=8 / psy=1 / psy_rd=1.00:0.00 / mixed_ref=1 / me_range=16 / chroma_me=1 / trellis=1 / 8x8dct=1 / cqm=0 / deadzone=21,11 / fast_pskip=1 / chroma_qp_offset=-2 / threads=22 / lookahead_threads=3 / sliced_threads=0 / nr=0 / decimate=1 / interlaced=0 / bluray_compat=0 / constrained_intra=0 / bframes=3 / b_pyramid=2 / b_adapt=2 / b_bias=0 / direct=3 / weightb=1 / open_gop=0 / weightp=2 / keyint=250 / keyint_min=25 / scenecut=40 / intra_refresh=0 / rc_lookahead=50 / rc=crf / mbtree=1 / crf=22.0 / qcomp=0.60 / qpmin=0 / qpmax=69 / qpstep=4 / ip_ratio=1.40 / aq=1:1.00\r\nDefault                                  : Yes\r\nForced                                   : No\r\nColor range                              : Limited\r\nMatrix coefficients                      : BT.709\r\n\r\nAudio\r\nID                                       : 2\r\nFormat                                   : AC-3\r\nFormat/Info                              : Audio Coding 3\r\nMode extension                           : CM (complete main)\r\nFormat settings, Endianness              : Big\r\nCodec ID                                 : A_AC3\r\nDuration                                 : 2h 42mn\r\nBit rate mode                            : Constant\r\nBit rate                                 : 384 Kbps\r\nChannel(s)                               : 6 channels\r\nChannel positions                        : Front: L C R, Side: L R, LFE\r\nSampling rate                            : 48.0 KHz\r\nFrame rate                               : 31.250 fps (1536 spf)\r\nCompression mode                         : Lossy\r\nStream size                              : 446 MiB (13%)\r\nDefault                                  : Yes\r\nForced                                   : No\r\n\r\nPlease consider donating to the Gord Downie Fund for Brain Cancer Research: \nhttps://donate.sunnybrook.ca/braincancerresearch",
  "parsed": {
    "xt": "urn:btih:48d6e8cdfa669c243517f8c8fb08458e9c0c2df4",
    "dn": "The Tragically Hip A National Celebration (2016) 720p 5.1",
    "tr": [
      "udp://exodus.desync.com:6969",
      "udp://open.demonii.com:1337",
      "udp://tracker.coppersurfer.tk:6969",
      "udp://tracker.leechers-paradise.org:6969",
      "udp://zer0day.ch:1337"
    ],
    "infoHash": "48d6e8cdfa669c243517f8c8fb08458e9c0c2df4",
    "infoHashBuffer": {
      "type": "Buffer",
      "data": [
        72,
        214,
        232,
        205,
        250,
        102,
        156,
        36,
        53,
        23,
        248,
        200,
        251,
        8,
        69,
        142,
        156,
        12,
        45,
        244
      ]
    },
    "name": "The Tragically Hip A National Celebration (2016) 720p 5.1",
    "announce": [
      "udp://exodus.desync.com:6969",
      "udp://open.demonii.com:1337",
      "udp://tracker.coppersurfer.tk:6969",
      "udp://tracker.leechers-paradise.org:6969",
      "udp://zer0day.ch:1337"
    ],
    "urlList": []
  },
  "previous": 44,
  "peers": 55,
  "last_updated": "2016-12-26T23:16:21.169Z"
}